<svg width="193" height="193" viewBox="0 0 93 93" fill="none" xmlns="http://www.w3.org/2000/svg">
<g id="guidance:shop">
<path id="Vector" d="M21.3125 81.375C21.3125 83.4304 22.129 85.4017 23.5824 86.8551C25.0358 88.3085 27.0071 89.125 29.0625 89.125C31.1179 89.125 33.0892 88.3085 34.5426 86.8551C35.996 85.4017 36.8125 83.4304 36.8125 81.375M48.4375 81.375C48.4375 83.4304 49.254 85.4017 50.7074 86.8551C52.1608 88.3085 54.1321 89.125 56.1875 89.125C58.2429 89.125 60.2142 88.3085 61.6676 86.8551C63.121 85.4017 63.9375 83.4304 63.9375 81.375M27.125 29.0625H87.1875V30.0312L86.2614 31.1279C76.8479 42.3073 71.6863 56.4527 71.6875 71.0675V71.6875H21.3125V64.4025C21.3125 56.3425 21.0567 48.2902 19.8167 40.331C17.67 26.5515 12.9309 5.8125 3.875 5.8125" stroke="white"/>
</g>
</svg>
